<svg xmlns="http://www.w3.org/2000/svg" version="1.1" xmlns:xlink="http://www.w3.org/1999/xlink" width="512" height="512" x="0" y="0" viewBox="0 0 6.827 6.827" style="enable-background:new 0 0 512 512" xml:space="preserve" fill-rule="evenodd"><g><path fill="#011D38" d="M1.257 1.79H5.57c.222 0 .403.18.403.403v2.44a.405.405 0 0 1-.403.404H1.257a.405.405 0 0 1-.404-.403V2.193c0-.222.182-.404.404-.404z" opacity="1" data-original="#011d38"></path><path fill="#013668" d="M1.257 1.87a.325.325 0 0 0-.324.323v2.44c0 .179.146.324.324.324H5.57a.325.325 0 0 0 .323-.323V2.193a.325.325 0 0 0-.323-.324z" opacity="1" data-original="#013668"></path><circle cx="4.219" cy="3.413" r="1.198" fill="#FAC23C" opacity="1" data-original="#fac23c"></circle><path fill="#FAC23C" d="M3.413 2.526c.023.02.044.041.065.063h-.129a1.21 1.21 0 0 1 .064-.063z" opacity="1" data-original="#fac23c"></path><circle cx="2.608" cy="3.413" r="1.198" fill="#DD2C00" opacity="1" data-original="#dd2c00"></circle><g fill="#FAC23C"><path d="M3.538 2.658c.017.02.033.041.048.062H3.24c.015-.021.031-.042.048-.062h.25zM3.631 2.79c.013.02.025.04.036.062H3.16c.01-.021.023-.042.035-.063h.436zM3.7 2.92c.01.022.019.042.027.064H3.1l.026-.063H3.7zM3.751 3.053c.007.02.013.041.018.062h-.711c.005-.02.011-.042.018-.062zM3.784 3.184c.004.021.008.042.01.063h-.762l.01-.063h.742zM3.802 3.316l.004.063H3.02l.003-.063h.778zM3.806 3.447c0 .022-.002.043-.004.063h-.778a1.215 1.215 0 0 1-.003-.063h.785zM3.795 3.58a1.198 1.198 0 0 1-.01.062h-.743a1.198 1.198 0 0 1-.01-.063h.763zM3.77 3.71a1.189 1.189 0 0 1-.019.064h-.676a1.188 1.188 0 0 1-.017-.063h.711zM3.727 3.842a1.19 1.19 0 0 1-.026.063h-.575a1.19 1.19 0 0 1-.027-.063h.628zM3.667 3.974a1.2 1.2 0 0 1-.036.063h-.436a1.2 1.2 0 0 1-.036-.063h.508zM3.586 4.106a1.204 1.204 0 0 1-.048.063h-.25a1.204 1.204 0 0 1-.048-.063z" fill="#FAC23C" opacity="1" data-original="#fac23c"></path></g><path fill="#FFFFFE" d="M5.182 3.617V3.21h-.114v.14a.109.109 0 0 0-.038-.026.125.125 0 0 0-.048-.009.115.115 0 0 0-.089.039c-.023.026-.035.063-.035.112 0 .044.01.081.032.112.02.03.052.046.092.046.02 0 .038-.005.054-.013a.143.143 0 0 0 .04-.038v.044h.106zm-.128-.2c.01.01.015.028.015.051 0 .026-.005.044-.014.056a.045.045 0 0 1-.036.017.042.042 0 0 1-.034-.017c-.01-.011-.014-.03-.014-.053 0-.026.004-.045.013-.055a.04.04 0 0 1 .033-.017c.015 0 .028.006.037.017zM4.713 3.37v-.048h-.106v.295h.113v-.1c0-.047.006-.079.018-.096a.04.04 0 0 1 .034-.018c.008 0 .019.002.032.008l.035-.08a.119.119 0 0 0-.055-.016.067.067 0 0 0-.04.012.116.116 0 0 0-.031.043zM4.538 3.424a.127.127 0 0 0-.008-.044.083.083 0 0 0-.023-.036.105.105 0 0 0-.051-.023.467.467 0 0 0-.14-.001.136.136 0 0 0-.043.013.096.096 0 0 0-.033.028.121.121 0 0 0-.018.045l.108.011c.004-.013.01-.021.017-.026a.078.078 0 0 1 .042-.009c.014 0 .024.003.03.008.006.006.009.016.009.03a.368.368 0 0 1-.04.013c-.013.004-.04.01-.083.018-.035.007-.06.018-.072.032a.08.08 0 0 0-.02.056c0 .024.009.044.027.06.018.016.045.025.08.025.027 0 .05-.004.07-.013a.145.145 0 0 0 .044-.03.14.14 0 0 0 .004.019.11.11 0 0 0 .008.017h.106a.145.145 0 0 1-.011-.03.155.155 0 0 1-.003-.033v-.13zm-.159.067a.544.544 0 0 0 .049-.015v.019a.076.076 0 0 1-.007.034.056.056 0 0 1-.023.023.07.07 0 0 1-.035.01c-.012 0-.022-.004-.028-.01a.029.029 0 0 1-.009-.021c0-.008.003-.015.01-.022a.112.112 0 0 1 .043-.018zM4.17 3.33a.183.183 0 0 0-.066-.096.207.207 0 0 0-.121-.031.205.205 0 0 0-.152.054c-.036.036-.054.088-.054.155 0 .05.01.092.03.125.021.032.045.055.073.067.028.013.064.02.109.02a.222.222 0 0 0 .09-.016.15.15 0 0 0 .06-.047.201.201 0 0 0 .034-.077l-.11-.034a.125.125 0 0 1-.027.059c-.012.014-.03.02-.054.02a.07.07 0 0 1-.058-.025c-.014-.016-.02-.047-.02-.092 0-.037.005-.063.016-.08a.074.074 0 0 1 .066-.035.073.073 0 0 1 .06.03.094.094 0 0 1 .012.027l.111-.024zM3.73 3.41l.036-.08a.119.119 0 0 0-.055-.015.067.067 0 0 0-.04.012.116.116 0 0 0-.032.043v-.048h-.106v.295h.114v-.1c0-.047.006-.079.017-.096a.04.04 0 0 1 .035-.018c.008 0 .018.002.032.008zM3.48 3.485a.203.203 0 0 0-.019-.095.13.13 0 0 0-.056-.056.217.217 0 0 0-.1-.019.169.169 0 0 0-.122.043.149.149 0 0 0-.044.112c0 .032.007.06.022.085a.136.136 0 0 0 .056.052.211.211 0 0 0 .092.017c.045 0 .08-.007.103-.02a.16.16 0 0 0 .062-.063l-.111-.01a.074.074 0 0 1-.02.018.065.065 0 0 1-.032.008.054.054 0 0 1-.043-.019.073.073 0 0 1-.014-.04h.226v-.013zm-.132-.089c.01.01.015.025.018.047h-.112a.08.08 0 0 1 .013-.04.051.051 0 0 1 .043-.02c.016 0 .028.004.038.013zM3.1 3.405v-.083h-.063V3.21l-.113.058v.054h-.041v.083h.041v.104c0 .032.003.056.01.071a.067.067 0 0 0 .03.033c.013.007.033.01.061.01.025 0 .05-.002.079-.009l-.009-.078a.124.124 0 0 1-.035.007c-.009 0-.016-.003-.02-.009a.057.057 0 0 1-.003-.025v-.104H3.1zM2.102 3.617V3.21h-.165l-.064.247-.063-.247h-.166v.407h.103v-.31l.08.31h.093l.079-.31v.31zM2.17 3.406l.108.011c.004-.013.01-.021.017-.026a.078.078 0 0 1 .042-.009c.014 0 .024.003.03.008.006.006.009.016.009.03a.368.368 0 0 1-.04.013c-.013.004-.04.01-.083.018-.035.007-.06.018-.072.032s-.02.033-.02.056c0 .024.009.044.027.06.018.016.045.025.08.025.027 0 .05-.004.07-.013a.145.145 0 0 0 .044-.03.14.14 0 0 0 .004.019.11.11 0 0 0 .008.017H2.5a.145.145 0 0 1-.011-.03.155.155 0 0 1-.003-.033v-.13a.127.127 0 0 0-.008-.044.083.083 0 0 0-.023-.036.105.105 0 0 0-.051-.023.467.467 0 0 0-.14-.001.136.136 0 0 0-.043.013.096.096 0 0 0-.033.028.121.121 0 0 0-.018.045zm.157.085a.544.544 0 0 0 .049-.015v.019a.076.076 0 0 1-.007.034.056.056 0 0 1-.023.023.07.07 0 0 1-.035.01c-.012 0-.022-.004-.028-.01a.029.029 0 0 1-.01-.021c0-.008.004-.015.01-.022a.112.112 0 0 1 .044-.018zM2.563 3.357a.078.078 0 0 0-.017.05c0 .018.005.034.016.048.01.014.023.024.038.03a.5.5 0 0 0 .082.018.234.234 0 0 1 .049.012c.008.004.012.01.012.019a.021.021 0 0 1-.01.018.056.056 0 0 1-.035.01.058.058 0 0 1-.033-.009.055.055 0 0 1-.02-.028l-.111.01c.006.028.02.05.044.066.022.015.06.023.115.023a.232.232 0 0 0 .09-.015.104.104 0 0 0 .048-.038.09.09 0 0 0 .016-.05.08.08 0 0 0-.015-.046.092.092 0 0 0-.042-.033.331.331 0 0 0-.084-.018.172.172 0 0 1-.048-.01c-.007-.003-.01-.009-.01-.016a.02.02 0 0 1 .008-.017c.006-.004.015-.006.028-.006.012 0 .023.003.032.008a.037.037 0 0 1 .014.021l.107-.01a.131.131 0 0 0-.028-.046.102.102 0 0 0-.042-.025.273.273 0 0 0-.078-.008.248.248 0 0 0-.08.01.1.1 0 0 0-.046.032z" opacity="1" data-original="#fffffe"></path></g></svg>